<svg width="199" height="200" viewBox="0 0 199 200" fill="none" xmlns="http://www.w3.org/2000/svg">
<path d="M74.9347 149.728C71.5137 148.681 69.293 146.001 68.9601 142.518L68.8135 140.983L64.4327 140.967C61.7644 140.957 59.6946 140.818 59.1381 140.61C57.9288 140.161 57.019 138.681 57.0193 137.166C57.0195 135.314 61.0854 119.302 61.6732 118.837C62.4535 118.22 63.874 118.499 64.4876 119.391L65.0195 120.163L63.0908 127.938C62.03 132.214 61.1062 135.936 61.0379 136.211C60.9233 136.671 61.2477 136.709 65.2306 136.709H69.5475L70.201 135.379C71.1179 133.512 73.2229 131.107 75.0741 129.812C79.645 126.614 85.526 126.945 88.2636 130.554C89.3926 132.042 89.9011 133.313 90.1373 135.237L90.3181 136.709H120.234L120.524 135.641C121.497 132.045 133.769 82.2304 133.769 81.8743C133.769 81.4948 132.873 81.439 126.78 81.439C120.142 81.439 119.764 81.4103 119.263 80.8692C118.597 80.1494 118.586 78.8527 119.239 77.9806L119.743 77.308L127.013 77.2239C131.429 77.1729 134.679 77.255 135.291 77.4331C136.661 77.8316 137.732 79.0982 137.91 80.5316L138.053 81.6821L146.394 81.7743C154.431 81.8631 154.776 81.8897 155.835 82.501C156.878 83.1036 157.654 84.0216 158.188 85.2852C158.32 85.5986 158.488 90.8479 158.56 96.9505L158.692 108.046L162.041 110.64C163.883 112.067 165.615 113.549 165.889 113.932C166.5 114.787 167 116.311 167 117.319C167 118.42 162.825 135.216 162.255 136.408C161.174 138.668 158.644 140.502 156.084 140.881C154.951 141.049 154.828 141.156 154.043 142.66C151.48 147.564 145.654 150.795 141.112 149.829C139.106 149.403 138.299 148.976 136.876 147.591C135.628 146.376 134.639 144.279 134.397 142.337L134.228 140.984H89.2758L88.7742 142.188C88.1431 143.703 85.6124 146.649 83.9543 147.798C81.309 149.632 77.3737 150.474 74.9351 149.729L74.9347 149.728ZM80.9108 144.695C86.1447 141.912 88.0851 134.586 84.1609 132.423C82.6943 131.615 80.1335 131.727 78.3208 132.68C73.2789 135.33 71.0337 142.323 74.4059 144.875C76.0018 146.082 78.429 146.015 80.9108 144.695ZM78.7288 140.696C76.8798 139.891 77.5207 136.709 79.5317 136.709C80.3109 136.709 81.5467 137.829 81.5467 138.535C81.5467 139.335 80.9623 140.35 80.3184 140.666C79.5769 141.031 79.5028 141.033 78.7288 140.696ZM146.318 144.805C151.386 142.215 153.471 135.372 150.033 132.608C149.418 132.113 148.913 132.008 147.132 132.009C145.233 132.011 144.807 132.112 143.547 132.864C141.715 133.958 139.997 135.819 139.109 137.671C138.563 138.81 138.406 139.549 138.396 141.032C138.381 143.304 138.864 144.202 140.64 145.205C141.615 145.756 142.069 145.84 143.338 145.707C144.178 145.619 145.519 145.213 146.318 144.805ZM144.138 140.644C143.822 140.479 143.431 139.998 143.269 139.576C142.463 137.475 144.944 135.715 146.381 137.369C147.142 138.243 147.112 139.414 146.307 140.283C145.615 141.031 145.057 141.124 144.138 140.644ZM135.841 135.214C137.031 132.97 138.333 131.469 140.303 130.07C143.002 128.153 144.265 127.735 147.35 127.735C149.707 127.735 150.132 127.817 151.339 128.505C153.775 129.893 155.658 132.913 155.658 135.431C155.658 136.586 155.807 136.723 156.699 136.387C158.348 135.766 158.778 134.851 160.296 128.745C161.082 125.585 161.724 122.96 161.724 122.911C161.724 122.863 161.185 122.758 160.527 122.677C159.039 122.496 158.296 121.811 158.296 120.623C158.296 119.046 158.808 118.635 160.977 118.476C162.75 118.345 162.918 118.278 162.997 117.676C163.116 116.773 162.878 116.52 159.244 113.693L156.054 111.21L139.659 110.926L138.663 110.104C137.487 109.135 136.682 107.389 136.676 105.797C136.672 104.557 138.548 96.7047 139.147 95.4571C139.704 94.2974 141.308 92.6242 142.552 91.9061C143.565 91.3209 144.111 91.2555 149.065 91.125L154.471 90.9826L154.548 88.9492C154.667 85.8082 155.254 85.9968 145.361 85.9968H136.947L136.555 87.4925C135.466 91.6424 129.02 117.872 129.02 118.154C129.02 118.39 132.178 118.477 140.757 118.477C152.142 118.477 152.509 118.494 153.021 119.047C153.732 119.815 153.718 121.357 152.993 122.065C152.467 122.58 151.807 122.612 140.117 122.687L127.795 122.767L126.162 129.383C125.263 133.021 124.53 136.159 124.533 136.355C124.536 136.628 125.766 136.711 129.792 136.711H135.048L135.841 135.214ZM154.603 101.097V95.1136L150.318 95.1153C147.96 95.1162 145.611 95.2431 145.097 95.3974C143.329 95.928 142.615 97.1259 141.569 101.318C140.501 105.599 140.433 106.361 141.087 106.772C141.365 106.947 144.135 107.066 148.076 107.071L154.604 107.079L154.603 101.097ZM45.7729 133.826C45.2098 133.519 44.6219 132.458 44.6219 131.75C44.6219 131.543 44.8678 131.036 45.1685 130.623C45.7012 129.892 45.7909 129.873 48.6831 129.873C51.4445 129.873 51.6908 129.919 52.2244 130.532C52.932 131.346 52.9593 132.443 52.2941 133.331C51.8303 133.95 51.5742 134.009 49.0633 134.069C47.5065 134.106 46.0944 134.002 45.7729 133.826ZM39.4431 124.703C38.8807 124.402 38.292 123.343 38.292 122.633C38.292 122.426 38.538 121.919 38.8387 121.507L39.3853 120.756H46.5731C53.7453 120.756 53.7621 120.757 54.3342 121.415C55.0419 122.229 55.0692 123.326 54.4038 124.214L53.9 124.887L46.9531 124.946C42.4842 124.984 39.8051 124.897 39.4427 124.703L39.4431 124.703ZM79.7006 117.868C66.6346 116.739 55.3222 106.313 51.984 92.3222C48.0339 75.7708 56.5129 58.1767 71.3384 52.1596C75.3032 50.5509 77.9976 50.022 82.3388 50.0005C89.2446 49.9663 94.4261 51.6255 100.055 55.6738C107.161 60.7835 112.018 68.7619 113.61 77.9354C114.147 81.0314 114.148 86.7688 113.611 90.0198C111.344 103.758 100.941 115.046 88.3284 117.45C85.447 117.999 82.7431 118.13 79.7014 117.867L79.7006 117.868ZM88.1404 113.165C93.5542 111.978 97.8118 109.449 101.984 104.942C106.178 100.412 108.442 95.9504 109.645 89.8444C110.179 87.1317 110.256 81.5671 109.796 78.8756C106.85 61.6545 91.1339 50.7356 75.5829 55.1063C66.1542 57.7562 58.3036 66.2368 55.8503 76.4221C53.4294 86.4734 56.1128 97.3809 62.8162 104.738C67.6161 110.005 72.8041 112.671 80.3598 113.754C81.7174 113.948 86.0717 113.619 88.1402 113.166L88.1404 113.165ZM81.1261 108.191C80.7359 107.725 80.6237 107.159 80.6237 105.656C80.6237 103.339 81.1154 102.522 82.5108 102.522C83.9498 102.522 84.448 103.312 84.448 105.593C84.448 108.051 84.0274 108.79 82.6277 108.79C81.9469 108.79 81.4685 108.599 81.1261 108.191ZM72.7083 94.5415C71.6961 93.3334 72.0402 92.4366 74.5997 89.6124L76.9717 86.9953L76.6213 85.5708C75.6085 81.452 78.566 77.3562 82.5532 77.3562C83.379 77.3562 84.3355 77.5186 84.6787 77.717C85.2759 78.0622 85.5513 77.8105 91.0544 71.8879C96.4398 66.0924 96.8536 65.711 97.5501 65.8987C98.6882 66.2056 99.2173 66.8747 99.2173 68.007C99.2173 68.9399 98.7981 69.4708 93.6674 75.035C88.3031 80.8524 88.1267 81.08 88.3925 81.835C88.7947 82.9775 88.7283 85.2892 88.2586 86.5057C87.7178 87.9063 86.4108 89.3616 85.1071 90.0151C83.9408 90.5997 81.7188 90.7214 80.6003 90.2619C79.9238 89.9841 79.7459 90.1129 77.4538 92.5411C75.3339 94.7869 74.9074 95.1148 74.1067 95.1148C73.5219 95.1148 73.0146 94.9067 72.7085 94.5413L72.7083 94.5415ZM84.1011 85.6637C85.3044 84.4427 84.6616 82.0081 83.0184 81.5626C82.1424 81.3251 80.892 82.1052 80.4969 83.1358C80.118 84.1238 80.4843 85.5121 81.2516 85.9962C82.0272 86.4858 83.4553 86.3192 84.1011 85.6637ZM59.939 85.2476C59.2272 84.2701 59.2491 83.6457 60.0294 82.6665C60.6177 81.9284 60.8116 81.8673 62.5597 81.869C64.2285 81.8707 64.5123 81.9503 64.9556 82.5416C65.608 83.412 65.5969 84.709 64.9309 85.4285C64.4981 85.896 64.0518 85.9983 62.4445 85.9983C60.6424 85.9983 60.4418 85.9382 59.939 85.2476ZM100.273 85.4285C99.5621 84.6605 99.5762 83.1181 100.301 82.4099C100.732 81.9884 101.256 81.8672 102.647 81.8672C104.852 81.8672 105.548 82.3863 105.548 84.032C105.548 85.544 104.864 85.9983 102.588 85.9983C101.152 85.9983 100.697 85.8862 100.273 85.4285ZM81.2469 64.9406C80.6973 64.4598 80.6243 64.1564 80.6243 62.3518C80.6243 60.4653 80.6814 60.2547 81.3643 59.6201C82.2709 58.7777 82.8489 58.7542 83.7536 59.523C84.393 60.0662 84.4486 60.2828 84.4486 62.2295C84.4486 63.9657 84.3539 64.4479 83.9211 64.9154C83.2546 65.6354 82.0541 65.6467 81.2469 64.9406ZM33.3066 115.602C31.9365 115.01 31.5977 113.643 32.5105 112.39L33.0572 111.639H44.5004C55.9328 111.639 55.9442 111.639 56.4814 112.262C57.4744 113.414 57.07 115.069 55.6667 115.597C54.6042 115.998 34.232 116.002 33.3066 115.602Z" fill="#669981"/>
</svg>
