<svg width="200" height="200" viewBox="0 0 200 200" fill="none" xmlns="http://www.w3.org/2000/svg">
<path d="M98.395 149.712C97.9114 149.545 96.7883 148.912 95.8992 148.305C92.529 146.004 92.621 146.025 89.8484 146.913C85.1631 148.414 83.7132 148.003 80.9132 144.38C78.686 141.498 78.8665 141.593 75.2992 141.441C72.9175 141.34 72.1336 141.234 71.4326 140.92C69.8319 140.202 68.9742 138.89 67.8148 135.383C67.4918 134.406 67.0577 133.516 66.7585 133.216C66.457 132.915 65.5763 132.488 64.5919 132.165C62.3207 131.421 60.6922 130.63 60.0501 129.96L59.5113 129.397L60.7358 128.516C61.9599 127.635 61.9604 127.635 62.5204 127.974C62.8285 128.16 64.0146 128.639 65.1563 129.037C68.7956 130.306 69.5837 131.074 70.8377 134.575C71.8429 137.381 72.0837 137.823 72.7421 138.072C73.0427 138.186 74.4825 138.329 75.9419 138.39C80.0019 138.559 80.6012 138.859 82.9481 141.897C83.7903 142.988 84.6724 144.054 84.9083 144.267C85.4983 144.799 86.3698 144.737 88.7769 143.993C92.6847 142.784 93.4335 142.901 96.9764 145.282C98.6149 146.384 99.5768 146.908 99.9581 146.908C100.339 146.908 101.301 146.384 102.94 145.282C106.483 142.901 107.232 142.784 111.139 143.993C113.546 144.737 114.418 144.799 115.008 144.267C115.244 144.054 116.126 142.988 116.968 141.897C119.315 138.859 119.914 138.559 123.974 138.39C125.434 138.329 126.873 138.186 127.174 138.072C127.833 137.823 128.073 137.381 129.078 134.575C130.333 131.074 131.121 130.306 134.76 129.037C135.901 128.639 137.088 128.16 137.396 127.974C137.956 127.635 137.956 127.635 139.18 128.516L140.405 129.397L139.866 129.96C139.224 130.63 137.596 131.421 135.324 132.165C134.34 132.488 133.459 132.915 133.158 133.216C132.859 133.516 132.424 134.406 132.101 135.383C130.942 138.89 130.084 140.202 128.484 140.92C127.783 141.234 126.999 141.34 124.617 141.441C121.051 141.593 121.216 141.507 119.047 144.332C116.191 148.051 114.829 148.439 110.027 146.9C107.3 146.027 107.382 146.008 104.017 148.305C101.545 149.992 100.188 150.331 98.395 149.712ZM97.125 138.975C89.2288 138.16 82.8812 135.862 77.2959 131.799L76.1101 130.936L76.9253 129.886C77.3737 129.308 77.803 128.765 77.8795 128.678C77.956 128.591 78.8706 129.098 79.9121 129.804C91.9905 137.994 107.924 137.994 120.003 129.804C121.044 129.098 121.959 128.591 122.035 128.678C122.112 128.765 122.541 129.308 122.989 129.886L123.805 130.936L122.578 131.829C117.874 135.253 111.854 137.691 105.819 138.617C103.951 138.904 98.5782 139.125 97.125 138.975ZM56.5816 126.417C55.2026 125.966 54.2086 125.131 53.528 123.853C53.1955 123.229 53.1638 122.65 53.1638 117.21C53.1638 111.477 53.1797 111.221 53.5855 110.47C54.4914 108.791 55.8906 107.943 57.7551 107.943C60.4564 107.943 62.2111 109.727 62.4031 112.668L62.4956 114.084H59.3181V113.036C59.3181 112.164 59.2315 111.902 58.803 111.473C58.4983 111.168 58.0703 110.958 57.7551 110.958C57.4398 110.958 57.0118 111.168 56.7071 111.473L56.192 111.988V122.432L56.7071 122.947C57.0118 123.252 57.4398 123.462 57.7551 123.462C58.0703 123.462 58.4983 123.252 58.803 122.947C59.2315 122.519 59.3181 122.256 59.3181 121.384V120.336H57.755V117.21H59.4066C62.2468 117.21 62.5293 117.564 62.4085 120.966C62.3248 123.323 62.1079 124.009 61.1031 125.092C60.0624 126.214 57.8981 126.848 56.5816 126.417ZM67.523 126.417C66.1439 125.966 65.15 125.131 64.4693 123.853C64.1348 123.225 64.1004 122.543 64.0478 115.501L63.9905 107.832H67.1336V122.432L67.6487 122.947C67.9534 123.252 68.3815 123.462 68.6967 123.462C69.0119 123.462 69.4399 123.252 69.7446 122.947L70.2597 122.432V107.832H73.4027L73.3455 115.501C73.2826 123.911 73.3068 123.732 72.0447 125.092C71.004 126.214 68.8394 126.848 67.523 126.417ZM74.9891 118.92C75.0446 111.492 75.0597 111.227 75.4682 110.47C76.3741 108.791 77.7733 107.943 79.6378 107.943C81.5023 107.943 82.9016 108.791 83.8076 110.47C84.2161 111.227 84.2311 111.492 84.2867 118.92L84.344 126.588H81.2009V123.462H78.0749V126.588H74.9317L74.9891 118.92ZM81.2009 116.162V111.988L80.6858 111.473C80.3811 111.168 79.953 110.958 79.6378 110.958C79.3226 110.958 78.8946 111.168 78.5899 111.473L78.0748 111.988V120.336H81.2008L81.2009 116.162ZM85.89 117.903C85.89 111.954 85.9583 109.068 86.1069 108.742C86.4251 108.044 87.0795 107.832 88.9202 107.832C91.9304 107.832 93.9704 109.067 94.852 111.423C95.5252 113.223 95.3677 114.602 94.2964 116.292C93.6856 117.255 92.2503 118.322 91.3042 118.518C91.0044 118.579 90.7857 118.709 90.818 118.806C90.8504 118.903 91.6671 119.987 92.633 121.214C93.9238 122.854 94.5056 123.448 94.8287 123.454C95.2472 123.462 95.2683 123.538 95.2683 125.026V126.589L94.3402 126.582C93.8298 126.578 93.2224 126.468 92.9904 126.338C92.7584 126.207 91.7693 125.1 90.7924 123.878L89.0161 121.656V126.589H85.89L85.89 117.903ZM91.4333 114.883C91.9537 114.363 92.0445 114.128 92.0445 113.303C92.0445 112.004 91.263 111.16 89.9192 111.009L89.0162 110.907V115.698L89.9192 115.596C90.5882 115.521 90.9804 115.336 91.4333 114.883ZM96.8716 118.92C96.9272 111.492 96.9423 111.227 97.3507 110.47C98.2566 108.791 99.6558 107.943 101.521 107.943C103.385 107.943 104.784 108.791 105.69 110.47C106.099 111.227 106.114 111.492 106.169 118.92L106.227 126.588H103.083V123.462H99.9573V126.588H96.8141L96.8716 118.92ZM103.083 116.162V111.988L102.568 111.473C102.264 111.168 101.836 110.958 101.52 110.958C101.205 110.958 100.777 111.168 100.472 111.473L99.9573 111.988V120.336H103.083L103.083 116.162ZM107.773 117.736C107.773 109.203 107.787 108.868 108.157 108.47C109.059 107.501 110.256 107.768 110.856 109.072C111.061 109.518 111.836 111.415 112.578 113.288L113.927 116.692L113.98 112.262L114.032 107.832H117.151V116.685C117.151 125.308 117.14 125.549 116.755 125.963C116.008 126.765 114.889 126.757 114.369 125.946C114.216 125.708 113.395 123.763 112.544 121.622L110.996 117.731L110.891 126.589H107.773V117.736ZM121.84 118.773V110.958H118.714V107.832H128.092V110.958H124.966V126.589H121.84L121.84 118.773ZM130.508 126.36C130.278 126.249 129.992 125.943 129.873 125.68C129.57 125.015 129.569 109.407 129.872 108.742C130.231 107.955 130.822 107.832 134.256 107.832H137.47V110.958H132.781V115.647H137.47V118.773H132.781V123.463H137.47V126.589L134.198 126.575C132.373 126.568 130.74 126.473 130.508 126.36ZM139.886 126.36C139.656 126.249 139.371 125.943 139.251 125.68C138.948 125.015 138.947 109.407 139.25 108.742C139.609 107.955 140.2 107.832 143.634 107.832H146.849V110.958H142.159V115.647H146.849V118.773H142.159V123.463H146.849V126.589L143.576 126.575C141.751 126.568 140.119 126.473 139.886 126.36ZM53.3526 106.647C53.1703 106.294 52.5958 105.421 52.0759 104.706C49.4872 101.147 49.3581 99.3334 51.4736 96.25C53.1329 93.8314 53.6527 92.9085 53.6527 92.3815C53.6527 92.0944 53.388 90.9995 53.0644 89.9484C51.5737 85.1057 51.9434 83.7942 55.5945 80.9725C58.4764 78.7453 58.3819 78.9259 58.5334 75.3586C58.6346 72.9768 58.7403 72.193 59.0547 71.492C59.7725 69.8912 61.0852 69.0336 64.5918 67.8742C65.5685 67.5512 66.4591 67.117 66.7583 66.8178C67.0575 66.5187 67.4917 65.6281 67.8146 64.6513C68.974 61.1447 69.8317 59.8321 71.4324 59.1142C72.1334 58.7998 72.9173 58.6942 75.2991 58.5929C78.8646 58.4414 78.6999 58.5268 80.869 55.7021C83.7291 51.9777 84.9937 51.6171 89.8985 53.1269C90.9443 53.4488 92.0309 53.7107 92.3133 53.709C92.8828 53.7054 93.5176 53.355 95.8991 51.7297C97.5639 50.5936 98.9567 50 99.958 50C100.959 50 102.352 50.5936 104.017 51.7297C106.398 53.3551 107.033 53.7054 107.603 53.709C107.885 53.7107 108.984 53.4446 110.045 53.1175C114.865 51.6316 116.22 52.0208 119.047 55.7021C121.228 58.5422 121.075 58.4628 124.63 58.601C127.024 58.694 127.776 58.7938 128.484 59.1125C130.086 59.8339 130.942 61.1457 132.102 64.6512C132.424 65.628 132.859 66.5185 133.158 66.8178C133.457 67.1169 134.348 67.5512 135.324 67.8741C138.831 69.0335 140.144 69.8912 140.862 71.4919C141.176 72.1929 141.282 72.9767 141.383 75.3585C141.534 78.9239 141.449 78.7593 144.274 80.9285C147.998 83.7884 148.359 85.0532 146.849 89.958C146.527 91.0038 146.265 92.0904 146.267 92.3727C146.27 92.9434 146.625 93.5844 148.248 95.9586C150.575 99.36 150.496 101.055 147.84 104.706C147.32 105.421 146.746 106.294 146.564 106.647C146.233 107.286 146.229 107.287 145.124 107.155C143.031 106.904 143.1 106.957 143.501 105.909C143.693 105.409 144.524 104.01 145.35 102.8C146.377 101.292 146.85 100.419 146.85 100.027C146.85 99.6339 146.341 98.6976 145.224 97.036C142.843 93.4931 142.725 92.7443 143.934 88.8365C144.679 86.4293 144.741 85.5579 144.208 84.9679C143.996 84.732 142.919 83.842 141.816 82.9902C138.848 80.6969 138.498 79.9954 138.331 75.996C138.271 74.5398 138.128 73.1024 138.014 72.8017C137.765 72.1433 137.323 71.9025 134.517 70.8973C131.021 69.6452 130.331 68.9547 129.079 65.4594C128.074 62.6534 127.833 62.2113 127.174 61.9621C126.874 61.8483 125.434 61.7054 123.975 61.6446C119.915 61.4753 119.343 61.1891 116.985 58.1482C116.135 57.0519 115.246 55.9807 115.009 55.7679C114.418 55.2357 113.547 55.2974 111.14 56.042C107.232 57.2508 106.483 57.133 102.94 54.752C101.302 53.6509 100.34 53.1265 99.9584 53.1265C99.5771 53.1265 98.6153 53.6509 96.9767 54.752C93.4338 57.1331 92.685 57.2508 88.7772 56.042C86.3702 55.2974 85.4986 55.2357 84.9086 55.7679C84.6727 55.9808 83.7906 57.0469 82.9484 58.1371C80.6015 61.1753 80.0022 61.4753 75.9422 61.6446C74.4829 61.7054 73.0431 61.8483 72.7424 61.9621C72.084 62.2114 71.8432 62.6535 70.838 65.4594C69.5859 68.9547 68.8954 69.6453 65.4001 70.8973C62.5943 71.9025 62.152 72.1432 61.9028 72.8017C61.789 73.1023 61.6461 74.5421 61.5853 76.0015C61.416 80.0615 61.116 80.6608 58.0778 83.0077C56.9876 83.8499 55.9214 84.732 55.7086 84.9679C55.1764 85.5579 55.2381 86.4294 55.9827 88.8365C57.1915 92.7443 57.0737 93.4931 54.6927 97.036C53.5761 98.6977 53.0672 99.6339 53.0672 100.027C53.0672 100.419 53.5396 101.292 54.5675 102.8C55.3926 104.01 56.2242 105.409 56.4156 105.909C56.8169 106.957 56.8863 106.904 54.7925 107.155C53.6882 107.287 53.683 107.286 53.3526 106.647ZM61.1333 104.379C60.8401 103.328 60.9844 96.1473 61.3407 94.0584C63.7791 79.7611 73.3384 68.1803 86.7192 63.3124C91.3098 61.6423 94.7106 61.065 99.9577 61.065C104.265 61.065 106.253 61.302 109.727 62.2297C116.598 64.0647 122.547 67.4841 127.519 72.4564C133.391 78.3288 137.142 85.6566 138.575 94.0586C138.931 96.1476 139.075 103.328 138.782 104.379C138.651 104.848 138.55 104.915 138.098 104.831C137.807 104.776 137.17 104.68 136.684 104.616L135.801 104.501L135.805 100.55C135.81 96.3811 135.624 94.6638 134.809 91.373C131.623 78.4965 121.479 68.3523 108.601 65.1651C105.48 64.3927 103.565 64.1729 99.9566 64.1729C98.0678 64.1729 95.7941 64.2895 94.8767 64.4334C86.8326 65.6953 80.0034 69.1686 74.4174 74.8386C69.7446 79.5819 66.6725 85.036 65.1045 91.3722C64.2902 94.6631 64.1038 96.3803 64.1085 100.549L64.1129 104.5L63.2292 104.616C62.7432 104.679 62.107 104.776 61.8155 104.83C61.3638 104.915 61.2626 104.848 61.1316 104.378L61.1333 104.379ZM82.7648 93.7653V85.9502H81.2017V82.8241H82.8533C84.7011 82.8241 85.3556 83.0352 85.674 83.7341C85.8226 84.0602 85.8909 86.9463 85.8909 92.8955V101.581H82.7649L82.7648 93.7653ZM90.9897 101.155C89.5922 100.618 88.4019 99.4103 87.8703 97.9894C87.4881 96.9679 87.454 96.4938 87.454 92.2024C87.454 87.9108 87.4881 87.4368 87.8703 86.4154C88.6285 84.389 90.8307 82.8241 92.9247 82.8241C95.0185 82.8241 97.2208 84.3888 97.9791 86.4154C98.3613 87.4368 98.3954 87.911 98.3954 92.2024C98.3954 96.494 98.3613 96.968 97.9791 97.9894C97.4347 99.4445 96.2594 100.62 94.8042 101.164C93.4231 101.681 92.3531 101.678 90.9897 101.155ZM94.5671 97.6837L95.1715 97.0793V87.3253L94.5327 86.6866C93.983 86.1368 93.7589 86.0478 92.9246 86.0478C92.0904 86.0478 91.8662 86.1368 91.3166 86.6866L90.6778 87.3253V97.0554L91.1663 97.581C91.8198 98.2842 92.2877 98.4655 93.1996 98.369C93.7225 98.3136 94.153 98.0977 94.5671 97.6837ZM103.494 101.155C102.096 100.618 100.906 99.4103 100.375 97.9894C99.9924 96.9679 99.9583 96.4938 99.9583 92.2024C99.9583 87.9108 99.9924 87.4368 100.375 86.4154C101.133 84.389 103.335 82.8241 105.429 82.8241C107.523 82.8241 109.725 84.3888 110.483 86.4154C110.866 87.4368 110.9 87.911 110.9 92.2024C110.9 96.494 110.866 96.968 110.483 97.9894C109.939 99.4445 108.764 100.62 107.308 101.164C105.927 101.681 104.857 101.678 103.494 101.155ZM107.071 97.6837L107.676 97.0793V87.3253L107.037 86.6866C106.487 86.1368 106.263 86.0478 105.429 86.0478C104.595 86.0478 104.371 86.1368 103.821 86.6866L103.182 87.3253V97.0554L103.671 97.581C104.324 98.2842 104.792 98.4655 105.704 98.369C106.227 98.3136 106.657 98.0977 107.071 97.6837ZM117.054 99.9847C116.409 99.6547 115.855 99.3607 115.822 99.3316C115.765 99.2819 121.792 87.1235 121.964 86.9398C122.041 86.8573 124.772 88.1158 124.772 88.234C124.772 88.5302 118.572 100.601 118.423 100.594C118.315 100.589 117.699 100.315 117.054 99.9847ZM123.404 96.8914V95.3283H126.53V98.4543H123.404V96.8914ZM114.026 90.6391V89.0761H117.152V92.2021H114.026V90.6391Z" fill="#669981"/>
</svg>
