<svg width="200" height="200" viewBox="0 0 200 200" fill="none" xmlns="http://www.w3.org/2000/svg">
<path d="M66.4193 149.697C62.2133 148.936 58.0014 146.618 55.1562 143.497C53.0897 141.231 51.6002 138.544 50.6649 135.395C49.9681 133.049 49.7885 128.783 50.2837 126.339C51.6133 119.777 55.5791 114.701 61.5709 111.893C64.7918 110.384 68.2955 109.798 71.9239 110.161L73.9046 110.36L92.1531 92.1192C106.964 77.3137 110.381 73.8045 110.289 73.487C110.227 73.272 110.124 72.0828 110.06 70.8444C109.57 61.3664 115.651 53.1344 125.025 50.5832C126.657 50.139 127.283 50.0724 129.833 50.0717C134.449 50.0704 135.989 50.6147 135.989 52.2473C135.989 52.907 135.656 53.2849 130.592 58.3607L125.194 63.771L127.902 71.9232L136.087 74.7131L141.461 69.3875C144.876 66.0036 147.027 64.0164 147.359 63.937C148.089 63.763 148.818 64.0876 149.146 64.7327C149.59 65.6047 149.865 67.6721 149.865 70.1396C149.865 74.6412 148.633 78.3619 145.932 82.0159C141.877 87.5029 134.823 90.5824 128.054 89.8208L125.953 89.5843L121.688 93.8459C119.342 96.1897 117.423 98.1977 117.423 98.3079C117.423 98.4182 118.347 99.4287 119.475 100.554C121.318 102.389 121.527 102.67 121.527 103.298C121.527 103.843 121.334 104.223 120.648 105.027C119.703 106.134 119.582 106.661 120.058 107.582C120.662 108.751 122.17 108.754 123.384 107.589C124.14 106.864 124.916 106.571 125.485 106.795C125.727 106.891 130.812 111.879 136.785 117.881C146.597 127.74 147.713 128.925 148.345 130.161C149.529 132.477 149.865 133.887 149.865 136.544C149.865 139.372 149.689 140.175 148.55 142.561C147.802 144.127 147.411 144.665 145.981 146.088C143.284 148.774 140.351 149.991 136.575 149.991C134.333 149.991 132.533 149.577 130.53 148.601C128.865 147.79 128.793 147.723 117.765 136.726C105.168 124.165 105.987 125.234 107.554 123.397C108.632 122.134 108.742 121.239 107.918 120.416C107.152 119.65 106.115 119.703 105.161 120.556C103.372 122.156 103.159 122.106 100.481 119.465L98.2568 117.27L89.5119 126.057L89.7072 127.229C90.0067 129.027 89.7958 133.004 89.2979 134.949C88.6903 137.321 87.04 140.579 85.437 142.569C80.9281 148.168 73.4539 150.969 66.4197 149.697L66.4193 149.697ZM74.0379 146.382C79.7732 144.855 84.2409 140.461 85.9831 134.632C86.5283 132.808 86.6816 128.948 86.2886 126.941C86.0946 125.95 86.0615 125.321 86.1858 124.986C86.4074 124.39 123.931 86.7771 124.723 86.3564C125.223 86.0914 125.515 86.0949 127.557 86.391C130.132 86.7645 131.805 86.686 134.183 86.08C139.623 84.6935 144.166 80.4246 145.856 75.1089C146.321 73.6465 146.889 69.3708 146.651 69.1318C146.585 69.0664 144.441 71.0967 141.886 73.6436C138.374 77.1444 137.125 78.2742 136.766 78.2742C135.905 78.2742 126.012 74.8835 125.563 74.4344C125.084 73.9553 121.723 64.0647 121.723 63.1338C121.723 62.6474 122.425 61.8544 126.365 57.8866L131.006 53.2123L129.052 53.3239C122.958 53.672 117.682 57.1529 115.08 62.5421C114.561 63.617 113.991 65.068 113.813 65.7667C113.309 67.7454 113.215 70.8296 113.596 72.8492C113.881 74.3598 113.885 74.6198 113.632 75.0967C113.475 75.3933 104.73 84.2456 94.198 94.7677L75.051 113.9L73.9099 113.762C70.5052 113.352 69.7018 113.308 68.2679 113.454C64.258 113.862 61.1058 115.301 58.2359 118.032C54.466 121.62 52.5201 126.905 53.1276 131.904C53.6046 135.829 55.2413 139.196 58.0231 141.976C60.3493 144.3 63.2001 145.875 66.3196 146.559C68.1095 146.951 72.2546 146.856 74.039 146.381L74.0379 146.382ZM64.1382 139.8C63.8949 139.682 62.5469 137.645 60.9477 134.977C58.7545 131.319 58.1995 130.253 58.2799 129.85C58.4107 129.197 63.378 120.89 63.908 120.438C64.2703 120.13 64.8607 120.096 69.9338 120.096C75.0127 120.096 75.5953 120.129 75.9441 120.438C76.386 120.83 80.915 128.269 81.3608 129.336C81.523 129.724 81.5992 130.2 81.5301 130.394C81.2281 131.243 76.482 139.007 75.9682 139.493L75.3996 140.03L69.9796 140.017C66.6447 140.009 64.3974 139.925 64.1382 139.8ZM75.9814 133.375L77.9777 130.042L74.097 123.516H65.7529L63.9216 126.545C62.9143 128.211 62.0418 129.687 61.9827 129.824C61.9235 129.962 62.769 131.567 63.8616 133.391L65.8483 136.708H73.9851L75.9814 133.375ZM81.562 118.338L80.3958 117.159L117.127 80.4253L119.472 82.7707L82.728 119.515L81.562 118.338ZM138.902 146.374C141.452 145.773 144.031 143.858 145.266 141.648C146.047 140.25 146.605 138.164 146.612 136.617C146.618 135.269 146.237 133.19 145.984 133.19C145.914 133.19 142.962 136.085 139.425 139.623L132.994 146.056L133.857 146.278C134.331 146.401 134.807 146.533 134.914 146.572C135.416 146.757 137.777 146.639 138.902 146.374ZM134.581 120.35C125.454 111.223 124.848 110.656 124.517 110.949C124.045 111.368 122.45 111.888 121.641 111.888C119.479 111.888 117.318 110.292 116.727 108.259C116.307 106.813 116.446 105.319 117.106 104.192L117.597 103.355L114.878 100.657L100.617 114.915L103.279 117.577L104.321 117.053C106.196 116.112 108.459 116.412 110.128 117.823C111.752 119.195 112.25 121.959 111.239 123.987L110.723 125.023L130.027 144.33L144.294 130.063L134.581 120.35ZM125.438 127.818L117.137 119.515L119.468 117.159L136.179 133.868L135.064 134.995C134.451 135.615 133.902 136.122 133.844 136.122C133.786 136.122 130.004 132.385 125.438 127.819L125.438 127.818ZM74.8055 83.8305L64.1427 73.1677L61.4196 72.4925C57.9785 71.6393 57.2014 71.3517 56.8506 70.8016C56.6955 70.5584 55.0908 67.7723 53.2844 64.6101C50.7728 60.2133 50 58.7013 50 58.1832C50 57.5674 50.3157 57.1865 53.4688 53.9976C55.3766 52.0681 57.1891 50.3581 57.4962 50.1975C57.8163 50.0301 58.2594 49.9568 58.5344 50.0259C59.1318 50.1758 70.5274 56.6707 71.0542 57.1616C71.3169 57.4063 71.6987 58.5638 72.2586 60.8129L73.0784 64.1058L94.4576 85.5036L92.1125 87.8488L70.1206 65.8555L68.4836 59.3819L58.5007 53.6689L56.1067 56.0507C54.79 57.3608 53.7128 58.4898 53.7128 58.56C53.7128 58.6568 59.0718 68.1672 59.2958 68.468C59.3215 68.5023 60.8081 68.9043 62.5995 69.3613L65.8566 70.1921L87.8128 92.1483L85.4677 94.4934L74.8055 83.8305Z" fill="#669981"/>
</svg>
